<?xml version="1.0" encoding="UTF-8"?>
<svg id="Layer_1" data-name="Layer 1" xmlns="http://www.w3.org/2000/svg" viewBox="0 0 1080 1080">
  <defs>
    <style>
      .cls-1 {
        fill: #ff5b24;
        fill-rule: evenodd;
      }

      .cls-1, .cls-2 {
        stroke-width: 0px;
      }

      .cls-2 {
        fill: #fff;
      }
    </style>
  </defs>
  <rect class="cls-2" width="1080" height="1080" rx="25" ry="25"/>
  <path class="cls-1" d="M917.94,490.85c-8.51-32.46-29.16-45.34-57.34-45.34-22.84,0-51.5,12.89-51.5,43.9,0,20.04,13.84,35.79,36.44,39.85l21.38,3.81c14.57,2.62,18.71,8.11,18.71,15.51,0,8.35-8.99,13.12-22.35,13.12-17.5,0-28.42-6.2-30.14-23.62l-30.86,4.79c4.85,33.64,34.97,47.48,62.2,47.48,25.76,0,53.21-14.8,53.21-44.61,0-20.29-12.4-35.08-35.47-39.38l-23.56-4.3c-13.12-2.39-17.5-8.82-17.5-15.04,0-7.88,8.51-12.89,20.15-12.89,14.82,0,25.27,5.01,25.76,21.47l30.86-4.77h0v.02ZM232.04,541.91l32.07-92.81h37.65l-55.88,137.66h-27.94l-55.89-137.66h37.65l32.33,92.81ZM429.08,488.46c0,10.99-8.74,18.61-18.94,18.61s-18.94-7.63-18.94-18.61,8.74-18.61,18.94-18.61,18.94,7.63,18.94,18.61h0ZM434.9,537.14c-12.63,16.23-26.01,27.44-49.57,27.44s-42.77-14.31-57.34-35.3c-5.82-8.6-14.82-10.5-21.38-5.98-6.07,4.3-7.53,13.36-1.93,21.24,20.15,30.29,48.11,47.97,80.66,47.97,29.88,0,53.21-14.31,71.43-38.17,6.81-8.82,6.54-17.89,0-22.92-6.07-4.79-15.05-3.11-21.86,5.73h-.02ZM518.73,517.58c0,28.16,16.53,42.96,34.98,42.96,17.5,0,35.47-13.84,35.47-42.96s-17.97-42.47-35.24-42.47c-18.71,0-35.24,13.12-35.24,42.47h.02ZM518.73,468.19v-18.85h-34.26v185.16h34.26v-65.84c11.43,15.29,26.24,21.72,43.01,21.72,31.34,0,61.95-24.34,61.95-74.44s-31.83-70.39-59.03-70.39c-21.63,0-36.44,9.79-45.91,22.66h-.02v-.02ZM683.22,517.58c0,28.16,16.53,42.96,34.98,42.96,17.5,0,35.47-13.84,35.47-42.96s-17.97-42.47-35.24-42.47c-18.71,0-35.24,13.12-35.24,42.47h.02ZM683.22,468.19v-18.85h-34.26v185.16h34.26v-65.84c11.43,15.29,26.24,21.72,43.01,21.72,31.34,0,61.95-24.34,61.95-74.44s-31.83-70.39-59.03-70.39c-21.63,0-36.44,9.79-45.91,22.66h-.02v-.02Z"/>
</svg>